<?xml version="1.0" encoding="UTF-8" standalone="no"?>
<!-- Created with Inkscape (http://www.inkscape.org/) -->

<svg
   xmlns:dc="http://purl.org/dc/elements/1.1/"
   xmlns:cc="http://creativecommons.org/ns#"
   xmlns:rdf="http://www.w3.org/1999/02/22-rdf-syntax-ns#"
   xmlns:svg="http://www.w3.org/2000/svg"
   xmlns="http://www.w3.org/2000/svg"
   xmlns:sodipodi="http://sodipodi.sourceforge.net/DTD/sodipodi-0.dtd"
   xmlns:inkscape="http://www.inkscape.org/namespaces/inkscape"
   width="77.095459mm"
   height="75.582619mm"
   viewBox="0 0 77.095459 75.582618"
   version="1.1"
   id="svg822"
   inkscape:version="0.92.5 (2060ec1f9f, 2020-04-08)"
   sodipodi:docname="logo_Whisbee_Alfred_v3.svg">
  <defs
     id="defs816" />
  <sodipodi:namedview
     id="base"
     pagecolor="#ffffff"
     bordercolor="#666666"
     borderopacity="1.0"
     inkscape:pageopacity="0.0"
     inkscape:pageshadow="2"
     inkscape:zoom="1.979899"
     inkscape:cx="156.91956"
     inkscape:cy="115.82974"
     inkscape:document-units="mm"
     inkscape:current-layer="g906"
     showgrid="false"
     inkscape:window-width="1848"
     inkscape:window-height="1016"
     inkscape:window-x="72"
     inkscape:window-y="27"
     inkscape:window-maximized="1"
     inkscape:lockguides="true"
     inkscape:snap-global="false"
     fit-margin-top="0"
     fit-margin-left="0"
     fit-margin-right="0"
     fit-margin-bottom="0" />
  <metadata
     id="metadata819">
    <rdf:RDF>
      <cc:Work
         rdf:about="">
        <dc:format>image/svg+xml</dc:format>
        <dc:type
           rdf:resource="http://purl.org/dc/dcmitype/StillImage" />
        <dc:title></dc:title>
      </cc:Work>
    </rdf:RDF>
  </metadata>
  <g
     inkscape:label="Layer 1"
     inkscape:groupmode="layer"
     id="layer1"
     transform="translate(-16.981353,-112.9107)">
    <g
       id="g906"
       transform="translate(-36.285714,-22.678571)">
      <path
         sodipodi:nodetypes="ccccccccsssccccccc"
         inkscape:connector-curvature="0"
         id="path1400-5"
         d="m 351.93555,514.90039 c -89.28794,92.98802 -76.56398,172.51045 -104.95703,256.93359 -1.822,3.49162 -3.05919,6.41928 -3.50586,8.89063 -0.17548,0.5807 -0.26877,1.16587 -0.2793,1.75195 0.011,0.46862 0.0749,0.93668 0.19141,1.40235 0.2068,1.23397 0.74679,2.31738 1.65039,3.27539 4.35272,5.44803 15.78188,9.08026 28.58984,9.08593 16.8071,2e-4 30.43206,-6.16212 30.43164,-13.76367 -0.008,-1.62565 -0.65365,-3.23785 -4.66797,-22.97265 -4.01432,-19.73479 -8.92404,-41.09162 -6.09179,-83.58985 1.57562,-23.64235 20.14659,-55.78386 30.97119,-76.08972 9.80397,-18.39127 20.36448,-30.41848 31.61707,-38.34856 4.48363,3.05257 71.85811,51.48569 61.37658,209.77617 -0.84428,1.87649 -1.18929,3.77206 -1.02344,5.62305 0.0511,0.50156 1.24473,4.59079 1.86524,5.05273 4.93062,7.39144 18.59798,11.35705 33.57617,9.74219 18.65713,-2.01911 33.03773,-11.91719 29.112,-22.08286 C 441.33305,686.72385 429.94586,565.6761 351.93555,514.90039 Z"
         style="fill:#413254;fill-opacity:1;stroke:#000000;stroke-width:3.77952766;stroke-linecap:butt;stroke-linejoin:miter;stroke-miterlimit:4;stroke-dasharray:none;stroke-opacity:1"
         transform="scale(0.26458333)" />
      <path
         sodipodi:nodetypes="ccc"
         inkscape:connector-curvature="0"
         id="path907"
         d="m 99.585207,161.04478 c -0.272209,0.27656 -0.620968,0.48925 -0.777337,0.86165 -0.358354,0.46749 -0.503819,1.07748 -0.416187,1.65855"
         style="fill:none;stroke:#000000;stroke-width:1;stroke-linecap:butt;stroke-linejoin:miter;stroke-miterlimit:4;stroke-dasharray:none;stroke-opacity:1" />
      <path
         sodipodi:nodetypes="ccc"
         inkscape:connector-curvature="0"
         id="path907-3"
         d="m 104.70508,164.11442 c -0.11956,0.4254 -0.24034,0.85702 -0.51892,1.20861 -0.2826,0.47702 -0.75947,0.81067 -1.28106,0.97758"
         style="fill:none;stroke:#000000;stroke-width:1;stroke-linecap:butt;stroke-linejoin:miter;stroke-miterlimit:4;stroke-dasharray:none;stroke-opacity:1" />
      <path
         id="ellipse856"
         d="m 101.41096,163.84442 a 3.8122947,4.2250685 32.199518 0 0 -5.477972,1.54402 3.8122947,4.2250685 32.199518 0 0 -0.328761,4.12092 4.6863645,4.9573973 32.199518 0 0 -4.111926,2.38104 4.6863645,4.9573973 32.199518 0 0 -0.386531,4.69464 5.1229516,12.203934 28.177162 0 0 -5.719884,7.30558 5.1229516,12.203934 28.177162 0 0 -0.981857,12.95795 5.1229516,12.203934 28.177162 0 0 10.307464,-8.67504 5.1229516,12.203934 28.177162 0 0 2.644343,-9.41759 4.6863645,4.9573973 32.199518 0 0 2.067499,-1.87119 4.6863645,4.9573973 32.199518 0 0 -0.0015,-5.40614 3.8122947,4.2250685 32.199518 0 0 2.963253,-2.02712 3.8122947,4.2250685 32.199518 0 0 -0.97417,-5.60707 z"
         style="fill:#9ab5fe;fill-opacity:1;fill-rule:evenodd;stroke:#000000;stroke-width:1;stroke-miterlimit:4;stroke-dasharray:none;stroke-opacity:1"
         inkscape:connector-curvature="0" />
      <path
         style="fill:none;stroke:#000000;stroke-width:1;stroke-linecap:round;stroke-linejoin:miter;stroke-miterlimit:4;stroke-dasharray:none;stroke-opacity:1"
         d="m 88.469369,179.214 c 2.071962,2.55671 4.648933,4.33995 8.244026,3.9774"
         id="path939"
         inkscape:connector-curvature="0"
         sodipodi:nodetypes="cc" />
      <path
         style="fill:none;stroke:#000000;stroke-width:1;stroke-linecap:round;stroke-linejoin:miter;stroke-miterlimit:4;stroke-dasharray:none;stroke-opacity:1"
         d="m 86.211032,182.42209 c 2.133823,3.71136 5.302222,4.68754 8.675398,5.4417"
         id="path941"
         inkscape:connector-curvature="0"
         sodipodi:nodetypes="cc" />
      <path
         style="fill:none;stroke:#000000;stroke-width:1;stroke-linecap:round;stroke-linejoin:miter;stroke-miterlimit:4;stroke-dasharray:none;stroke-opacity:1"
         d="m 84.339965,186.06931 c 2.825013,3.08661 5.692644,4.96835 8.991358,4.46776"
         id="path943"
         inkscape:connector-curvature="0"
         sodipodi:nodetypes="cc" />
      <path
         style="fill:none;stroke:#000000;stroke-width:1;stroke-linecap:round;stroke-linejoin:miter;stroke-miterlimit:4;stroke-dasharray:none;stroke-opacity:1"
         d="m 83.118348,189.97409 c 1.563107,1.81807 3.831077,3.39126 7.817283,3.69337"
         id="path945"
         inkscape:connector-curvature="0"
         sodipodi:nodetypes="cc" />
      <path
         style="fill:none;stroke:#000000;stroke-width:1;stroke-linecap:round;stroke-linejoin:miter;stroke-miterlimit:4;stroke-dasharray:none;stroke-opacity:1"
         d="m 82.797067,194.09937 c 0.152615,0.6877 4.681672,2.68123 4.675159,2.33494"
         id="path947"
         inkscape:connector-curvature="0"
         sodipodi:nodetypes="cc" />
      <path
         style="fill:none;stroke:#000000;stroke-width:1.19710517;stroke-linecap:round;stroke-linejoin:miter;stroke-miterlimit:4;stroke-dasharray:4.78842061, 2.3942103;stroke-dashoffset:0;stroke-opacity:1"
         d="m 83.76941,199.78102 c 0.161226,5.55865 -7.419972,9.78421 -11.942374,6.05512 -4.522404,-3.7291 1.500455,-11.14291 4.753953,-5.89922 3.253472,5.24371 -5.116357,8.509 -9.991154,6.72601 -4.874797,-1.78299 -8.863577,-9.32013 -4.331964,-13.76408 4.531604,-4.44395 6.962161,3.52677 1.959625,5.49781 -5.002535,1.97105 -10.057749,-1.32801 -11.423784,-5.89569 -1.366036,-4.56769 -0.229912,-9.29509 0.867757,-13.7178"
         id="path969"
         inkscape:connector-curvature="0"
         sodipodi:nodetypes="czzzzzzc" />
      <path
         style="fill:#ffffff;fill-opacity:1;stroke:#000000;stroke-width:3.45159721;stroke-linecap:butt;stroke-linejoin:miter;stroke-miterlimit:4;stroke-dasharray:none;stroke-opacity:1"
         d="m 65.876953,107.51172 c -8.557993,0.20049 -15.034104,3.52956 -18.408203,11.50976 -11.236798,26.57663 44.612416,28.94819 94.26367,31.8711 -0.67201,-3.59545 -0.30311,-7.35849 1.06055,-10.81836 0.46485,-1.17573 1.03999,-2.30442 1.7168,-3.36914 -29.00547,-13.97463 -59.188006,-29.6489 -78.632817,-29.19336 z"
         transform="matrix(0.26458333,0,0,0.26458333,53.267067,135.58927)"
         id="path1132"
         inkscape:connector-curvature="0"
         sodipodi:nodetypes="sccccs" />
      <path
         style="fill:#ffffff;fill-opacity:1;stroke:#000000;stroke-width:3.22973704;stroke-linecap:butt;stroke-linejoin:miter;stroke-miterlimit:4;stroke-dasharray:none;stroke-opacity:1"
         d="M 76.302734 113.41406 C 70.528664 113.39809 66.520252 115.72663 65.144531 121.53906 C 60.159792 142.59966 105.63316 143.61435 141.41406 147.35352 A 17.874404 18.908794 21.572756 0 1 142.40039 141.16992 C 118.56846 129.49366 91.404093 113.45583 76.302734 113.41406 z "
         transform="matrix(0.26458333,0,0,0.26458333,53.267067,135.58927)"
         id="path1134" />
      <path
         style="fill:#ffffff;fill-opacity:1;stroke:#000000;stroke-width:4.03915453;stroke-linecap:butt;stroke-linejoin:miter;stroke-miterlimit:4;stroke-dasharray:none;stroke-opacity:1"
         d="m 81.580078,74.082031 c -5.586316,0.170974 -10.677012,2.409736 -15.134766,7.267578 -20.795036,22.661351 26.632093,42.970201 75.171878,63.210941 0.21532,-1.53302 0.61022,-3.03982 1.17578,-4.48633 2.38215,-6.0202 7.51031,-10.46966 13.5918,-11.79297 C 129.1553,100.55374 102.03341,73.456041 81.580078,74.082031 Z"
         transform="matrix(0.26458333,0,0,0.26458333,53.267067,135.58927)"
         id="path1140"
         inkscape:connector-curvature="0"
         sodipodi:nodetypes="sccccs" />
      <path
         style="fill:#ffffff;fill-opacity:1;stroke:#000000;stroke-width:3.77952766;stroke-linecap:butt;stroke-linejoin:miter;stroke-miterlimit:4;stroke-dasharray:none;stroke-opacity:1"
         d="m 93.933594,86.470703 c -3.554739,-0.100284 -6.616713,1.249329 -9.054688,4.435547 -11.912611,15.56873 23.775204,32.28038 58.019534,48.93359 1.51018,-3.66928 4.07254,-6.79467 7.32422,-8.93359 C 129.19031,109.34442 107.81049,86.862189 93.933594,86.470703 Z"
         transform="matrix(0.26458333,0,0,0.26458333,53.267067,135.58927)"
         id="path1142"
         inkscape:connector-curvature="0"
         sodipodi:nodetypes="ssccs" />
      <path
         style="fill:#ffffff;fill-opacity:1;stroke:#000000;stroke-width:3.45159721;stroke-linecap:butt;stroke-linejoin:miter;stroke-miterlimit:4;stroke-dasharray:none;stroke-opacity:1"
         d="m 176.74805,150.98633 c -0.19306,0.75632 -0.43049,1.50123 -0.71094,2.23047 -1.39135,3.51625 -3.74735,6.55735 -6.76367,8.73047 33.32092,37.65559 70.54339,81.82816 84.73633,56.20703 14.12067,-25.4906 -34.79103,-46.12348 -77.26172,-67.16797 z"
         transform="matrix(0.26458333,0,0,0.26458333,53.267067,135.58927)"
         id="path1021-7-5"
         inkscape:connector-curvature="0"
         sodipodi:nodetypes="ccccc" />
      <path
         style="fill:#ffffff;fill-opacity:1;stroke:#000000;stroke-width:3.22973704;stroke-linecap:butt;stroke-linejoin:miter;stroke-miterlimit:4;stroke-dasharray:none;stroke-opacity:1"
         d="M 174.88086 155.60352 A 17.874404 18.908794 21.572756 0 1 171.83594 159.7207 C 197.27679 185.70157 227.2799 223.14323 241.12109 205.79688 C 255.0145 188.38514 208.19381 172.08405 174.88086 155.60352 z "
         transform="matrix(0.26458333,0,0,0.26458333,53.267067,135.58927)"
         id="path1021-3" />
      <path
         style="fill:#ffffff;fill-opacity:1;stroke:#000000;stroke-width:4.03915453;stroke-linecap:butt;stroke-linejoin:miter;stroke-miterlimit:4;stroke-dasharray:none;stroke-opacity:1"
         d="m 175.56445,137.70898 c 2.3053,4.76891 2.47766,10.42395 0.47266,15.50782 -0.72759,1.83157 -1.72136,3.54431 -2.94531,5.07617 46.79741,26.23699 93.75258,52.63453 98.85547,21.68555 5.13404,-31.13783 -45.88117,-36.63013 -96.38282,-42.26954 z"
         transform="matrix(0.26458333,0,0,0.26458333,53.267067,135.58927)"
         id="path1021-7"
         inkscape:connector-curvature="0"
         sodipodi:nodetypes="cccsc" />
      <ellipse
         ry="5.0029516"
         rx="4.7292695"
         transform="rotate(21.572756)"
         cy="127.07986"
         cx="152.8797"
         id="path913"
         style="fill:#413254;fill-opacity:1;fill-rule:evenodd;stroke:#000000;stroke-width:0.9480232;stroke-linecap:round;stroke-miterlimit:4;stroke-dasharray:none;stroke-opacity:1" />
      <path
         style="fill:#ffffff;fill-opacity:1;stroke:#000000;stroke-width:3.77952766;stroke-linecap:butt;stroke-linejoin:miter;stroke-miterlimit:4;stroke-dasharray:none;stroke-opacity:1"
         d="m 177.3418,144.18945 c 0.27741,3.04666 -0.1706,6.14653 -1.30469,9.02735 -0.15764,0.38085 -0.327,0.7567 -0.50781,1.12695 35.21915,17.08949 72.46683,36.60172 77.52343,17.02344 5.09157,-19.71365 -36.94631,-22.90081 -75.71093,-27.17774 z"
         id="path1021"
         transform="matrix(0.26458333,0,0,0.26458333,53.267067,135.58927)"
         inkscape:connector-curvature="0"
         sodipodi:nodetypes="cccsc" />
    </g>
  </g>
</svg>
